<?xml version="1.0" standalone="no"?>
<!DOCTYPE svg PUBLIC "-//W3C//DTD SVG 20010904//EN"
 "http://www.w3.org/TR/2001/REC-SVG-20010904/DTD/svg10.dtd">
<svg version="1.0" xmlns="http://www.w3.org/2000/svg"
 width="197.000000pt" height="200.000000pt" viewBox="0 0 197.000000 200.000000"
 preserveAspectRatio="xMidYMid meet">

<g transform="translate(0.000000,200.000000) scale(0.100000,-0.100000)"
fill="#000000" stroke="none">
<path d="M865 1895 c-47 -46 -19 -115 48 -115 57 0 84 37 66 89 -19 55 -73 68
-114 26z"/>
<path d="M1086 1885 c-24 -25 -28 -52 -11 -84 20 -39 73 -51 111 -26 24 15 26
22 21 62 -3 25 -11 49 -18 54 -22 14 -86 10 -103 -6z"/>
<path d="M640 1850 c-23 -23 -27 -82 -6 -99 8 -7 29 -14 48 -17 67 -11 109 65
63 116 -24 26 -79 26 -105 0z"/>
<path d="M1294 1807 c-56 -66 14 -151 96 -117 34 14 44 38 35 80 -13 59 -93
82 -131 37z"/>
<path d="M441 1746 c-26 -28 -26 -83 -1 -103 24 -20 84 -16 105 7 62 69 -41
163 -104 96z"/>
<path d="M1480 1687 c-21 -11 -25 -20 -24 -55 2 -104 154 -112 154 -7 0 63
-66 95 -130 62z"/>
<path d="M292 1609 c-65 -25 -43 -139 27 -139 46 0 81 35 81 80 0 20 -6 42
-13 48 -19 16 -69 22 -95 11z"/>
<path d="M1648 1498 c-48 -16 -34 -88 17 -88 38 0 58 23 51 57 -8 35 -28 44
-68 31z"/>
<path d="M156 1398 c-39 -55 -2 -132 58 -121 57 11 84 52 65 100 -13 35 -26
43 -71 43 -27 0 -41 -6 -52 -22z"/>
<path d="M705 1251 c-109 -27 -164 -115 -119 -189 9 -15 33 -40 52 -57 33 -28
40 -30 121 -30 72 0 92 4 122 23 53 32 70 30 62 -10 -6 -38 -44 -83 -87 -105
-43 -23 -158 -13 -197 16 -28 21 -32 21 -54 7 -30 -19 -25 -36 20 -70 31 -24
42 -26 130 -26 102 0 128 8 193 59 42 33 62 70 62 115 0 40 8 66 21 66 5 0 9
-12 9 -27 1 -23 2 -25 10 -12 5 9 11 32 14 50 2 19 7 41 11 50 3 8 1 27 -4 42
-7 18 -6 28 2 35 14 11 195 16 220 6 21 -8 22 -28 1 -45 -56 -46 -124 -202
-124 -284 0 -50 16 -67 65 -70 30 -2 35 1 34 19 0 12 -3 15 -6 9 -18 -47 -29
46 -12 112 20 78 82 174 152 234 20 17 27 31 25 50 l-3 26 -200 2 c-183 1
-203 -1 -232 -19 l-33 -19 -64 25 c-65 26 -129 32 -191 17z m156 -67 c56 -19
76 -46 65 -89 -20 -79 -240 -86 -275 -9 -25 56 -3 81 85 98 38 8 70 15 72 15
2 1 26 -6 53 -15z m174 -93 c3 -5 1 -12 -5 -16 -5 -3 -10 1 -10 9 0 18 6 21
15 7z"/>
<path d="M97 1192 c-25 -27 -22 -87 5 -112 66 -61 155 32 102 108 -20 28 -83
31 -107 4z"/>
<path d="M1405 1140 c-3 -5 -1 -10 4 -10 6 0 11 5 11 10 0 6 -2 10 -4 10 -3 0
-8 -4 -11 -10z"/>
<path d="M98 960 c-25 -26 -29 -36 -24 -63 8 -41 22 -54 68 -62 49 -9 78 19
78 74 0 31 -6 44 -26 60 -36 29 -60 26 -96 -9z"/>
<path d="M158 746 c-39 -55 -9 -126 53 -126 52 0 69 15 69 64 0 50 -21 74 -71
82 -28 4 -37 0 -51 -20z"/>
<path d="M1650 621 c-28 -8 -40 -52 -19 -77 26 -31 89 -6 89 36 0 18 -25 51
-38 49 -4 -1 -18 -4 -32 -8z"/>
<path d="M302 573 c-15 -3 -29 -17 -38 -40 -25 -60 2 -102 67 -103 81 0 97 99
22 138 -12 7 -23 11 -25 11 -2 -1 -14 -4 -26 -6z"/>
<path d="M1478 469 c-22 -16 -28 -29 -28 -59 0 -46 16 -61 74 -67 35 -4 48 -1
65 16 45 45 10 131 -52 131 -18 0 -44 -10 -59 -21z"/>
<path d="M455 413 c-27 -7 -35 -21 -35 -65 0 -47 36 -78 83 -72 64 7 82 69 34
122 -20 21 -40 25 -82 15z"/>
<path d="M1314 350 c-30 -12 -50 -64 -36 -96 23 -50 109 -55 131 -8 34 76 -19
135 -95 104z"/>
<path d="M642 294 c-53 -37 -4 -133 61 -120 38 7 57 30 57 66 0 58 -68 89
-118 54z"/>
<path d="M1090 267 c-34 -17 -39 -73 -10 -105 27 -29 82 -30 111 -1 17 17 20
29 16 62 -3 22 -11 44 -19 48 -19 13 -69 11 -98 -4z"/>
<path d="M883 260 c-77 -31 -40 -152 42 -136 38 8 53 23 61 61 9 49 -54 94
-103 75z"/>
</g>
</svg>
